<?xml version="1.0" standalone="no"?>
<!DOCTYPE svg PUBLIC "-//W3C//DTD SVG 20010904//EN"
 "http://www.w3.org/TR/2001/REC-SVG-20010904/DTD/svg10.dtd">
<svg version="1.0" xmlns="http://www.w3.org/2000/svg"
 width="200.000000pt" height="24.000000pt" viewBox="0 0 300.000000 40.000000"
 preserveAspectRatio="xMidYMid meet">

<g transform="translate(0.000000,40.000000) scale(0.100000,-0.100000)"
fill="#02073E" stroke="none">
<path d="M860 255 l0 -145 30 0 30 0 0 69 c0 60 3 72 22 85 15 11 26 12 40 5
15 -8 18 -22 18 -84 l0 -75 30 0 30 0 0 79 c0 64 -4 83 -21 105 -22 28 -64 35
-100 16 -18 -10 -19 -7 -19 40 0 49 -1 50 -30 50 l-30 0 0 -145z"/>
<path d="M2156 385 c-3 -8 2 -21 10 -30 19 -19 59 -2 50 22 -3 8 -6 17 -6 19
0 12 -49 2 -54 -11z" fill="#02073E"/>
<path d="M190 253 c-25 -70 -46 -130 -48 -135 -2 -4 10 -8 28 -8 26 0 33 5 41
30 10 28 14 30 60 30 47 0 51 -2 60 -30 9 -24 17 -30 40 -30 16 0 29 3 29 6 0
5 -69 203 -87 250 -3 8 -20 14 -42 14 l-37 0 -44 -127z m87 -31 c-38 -4 -41 0
-27 45 21 69 22 69 39 13 l17 -55 -29 -3z" fill="#02073E"/>
<path d="M1940 245 l0 -135 85 0 c78 0 85 2 85 20 0 18 -7 20 -55 20 l-55 0 0
115 0 115 -30 0 -30 0 0 -135z" fill="#02073E"/>
<path d="M709 338 c-7 -13 -18 -27 -25 -31 -19 -11 -18 -37 1 -37 12 0 15 -14
15 -69 0 -61 3 -72 22 -85 39 -27 98 -18 98 15 0 14 -7 19 -30 19 -30 0 -30 0
-30 59 0 58 1 60 28 63 19 2 27 9 27 23 0 14 -8 21 -27 23 -20 2 -28 9 -28 23
0 27 -36 25 -51 -3z" fill="#02073E"/>
<path d="M440 215 l0 -105 25 0 c23 0 25 3 26 53 1 70 10 98 35 108 36 13 47
-4 52 -85 4 -72 6 -76 28 -76 23 0 24 2 24 85 0 72 -3 88 -20 105 -24 24 -77
26 -102 4 -16 -16 -18 -16 -24 0 -3 9 -15 16 -25 16 -17 0 -19 -9 -19 -105z" fill="#02073E"/>
<path d="M1148 304 c-52 -28 -58 -124 -12 -176 40 -43 132 -30 159 23 28 53
10 135 -34 159 -28 14 -81 12 -113 -6z m90 -46 c17 -17 15 -83 -2 -98 -8 -6
-25 -10 -38 -8 -29 4 -46 57 -30 93 13 27 49 34 70 13z" fill="#02073E"/>
<path d="M1360 215 l0 -105 30 0 29 0 3 76 c3 69 5 78 25 85 38 14 53 -13 53
-92 0 -67 1 -69 25 -69 25 0 25 1 25 89 0 82 -2 91 -22 105 -29 20 -82 20 -99
0 -11 -14 -13 -14 -21 0 -5 9 -18 16 -28 16 -19 0 -20 -8 -20 -105z" fill="#02073E"/>
<path d="M1590 312 c0 -5 18 -53 40 -107 37 -92 39 -100 25 -122 -9 -13 -24
-23 -35 -23 -15 0 -20 -7 -20 -25 0 -19 5 -25 20 -25 34 0 75 26 89 57 20 43
91 235 91 244 0 5 -13 9 -28 9 -27 0 -30 -5 -52 -76 l-24 -77 -25 77 c-23 71
-27 76 -53 76 -15 0 -28 -4 -28 -8z" fill="#02073E"/>
<path d="M2160 215 l0 -105 25 0 25 0 0 105 0 105 -25 0 -25 0 0 -105z" fill="#02073E"/>
<path d="M2280 215 l0 -105 25 0 c24 0 25 3 25 54 0 63 12 101 34 109 30 12
46 -20 46 -94 l0 -69 30 0 30 0 0 75 c0 60 3 76 17 84 11 6 24 6 35 0 15 -8
18 -23 18 -84 l0 -75 31 0 31 0 -4 91 c-2 76 -6 93 -22 105 -26 19 -75 18 -97
-2 -17 -15 -19 -15 -34 0 -19 19 -67 21 -98 5 -16 -9 -22 -9 -25 0 -2 6 -12
11 -23 11 -18 0 -19 -8 -19 -105z" fill="#02073E"/>
<path d="M2687 313 c-10 -3 -17 -12 -15 -21 3 -13 13 -16 42 -14 35 3 66 -10
66 -28 0 -4 -22 -10 -48 -14 -64 -8 -85 -25 -85 -66 0 -59 62 -89 113 -53 17
12 25 13 28 5 2 -7 12 -12 23 -12 17 0 19 8 19 89 0 82 -2 91 -22 105 -21 15
-81 19 -121 9z m93 -123 c0 -12 -37 -50 -49 -50 -5 0 -14 7 -21 15 -10 12 -10
18 0 30 14 17 70 21 70 5z" fill="#02073E"/>
</g>
</svg>
