<?xml version="1.0" standalone="no"?>
<!DOCTYPE svg PUBLIC "-//W3C//DTD SVG 20010904//EN"
 "http://www.w3.org/TR/2001/REC-SVG-20010904/DTD/svg10.dtd">
<svg version="1.0" xmlns="http://www.w3.org/2000/svg"
 width="30.000000pt" height="24.000000pt" viewBox="0 0 50.000000 50.000000"
 preserveAspectRatio="xMidYMid meet">

<g transform="translate(0.000000,50.000000) scale(0.100000,-0.100000)"
fill="#02073E" stroke="none">
<path d="M185 448 c-106 -37 -166 -156 -131 -259 14 -41 14 -51 2 -87 -19 -54
-7 -65 49 -45 34 11 48 12 66 3 12 -7 48 -12 80 -12 217 0 284 286 90 385 -57
28 -104 33 -156 15z m118 -42 c51 -19 76 -42 99 -95 30 -65 18 -120 -35 -176
-49 -51 -95 -64 -160 -45 -23 7 -57 12 -75 12 -31 -1 -33 1 -28 24 4 14 -1 46
-11 73 -14 42 -15 55 -4 90 16 55 56 98 106 116 50 17 60 18 108 1z"/>
<path d="M164 336 c-32 -32 -46 -76 -24 -76 12 0 100 88 100 100 0 22 -44 8
-76 -24z"/>
<path d="M260 350 c0 -11 7 -20 15 -20 8 0 27 -16 42 -35 15 -19 34 -35 41
-35 24 0 12 42 -22 76 -39 39 -76 45 -76 14z"/>
<path d="M130 222 c0 -25 27 -60 60 -77 64 -33 66 -12 5 50 -49 48 -65 55 -65
27z"/>
<path d="M303 194 c-24 -25 -43 -49 -43 -54 0 -29 75 11 95 50 33 64 8 66 -52
4z"/>
</g>
</svg>
